<svg
  xmlns='http://www.w3.org/2000/svg'
  width='60'
  height='60'
  fill='url(#film-tape-gradient)'
  stroke-width="3"
  version='1.1'
  viewBox='0 0 512 512'
  xmlSpace='preserve'
>
  <defs>
    <linearGradient id="film-tape-gradient" x1="0%" y1="50%" x2="100%" y2="0%">
      <stop offset="0%" style="stop-color:rgb(0, 18, 25);stop-opacity:0.1" />
      <stop offset="30%" style="stop-color:rgb(0, 95, 115);stop-opacity:0.3" />
      <stop offset="60%" style="stop-color:rgb(10, 147, 150);stop-opacity:0.5" />
      <stop offset="100%" style="stop-color:rgb(148, 210, 189);stop-opacity:0.7" />
    </linearGradient>
  </defs>

  <path d="M274.7 42.635c-129.405 0-234.683 105.279-234.683 234.682 0 19.711 2.457 38.858 7.055 57.163-14.997-32.166-23.119-67.587-23.119-103.863 0-85.792 45.662-166.568 119.165-210.807 5.048-3.039 6.678-9.594 3.64-14.642-3.039-5.049-9.594-6.676-14.642-3.64-39.427 23.732-72.237 57.45-94.884 97.511S2.616 184.598 2.616 230.618c0 41.854 10.014 83.707 28.96 121.028 18.945 37.323 46.817 70.11 80.603 94.814l.019.013c42.202 40.557 99.489 65.528 162.503 65.528 129.405 0 234.683-105.279 234.683-234.682S404.105 42.635 274.7 42.635zm0 448.03c-117.64 0-213.347-95.707-213.347-213.346S157.06 63.971 274.7 63.971s213.347 95.707 213.347 213.346S392.341 490.665 274.7 490.665z"></path>
  <path d="M112.314 195.881a10.664 10.664 0 0014.572-3.904 170.124 170.124 0 0137.9-45.232c4.508-3.794 5.088-10.523 1.294-15.031-3.794-4.508-10.523-5.088-15.031-1.294a191.432 191.432 0 00-42.641 50.889c-2.945 5.102-1.197 11.627 3.906 14.572zM437.084 358.752c-5.103-2.947-11.626-1.199-14.573 3.905a170.166 170.166 0 01-37.903 45.234c-4.507 3.795-5.087 10.524-1.292 15.033a10.644 10.644 0 008.166 3.799c2.425 0 4.864-.823 6.864-2.506a191.516 191.516 0 0042.642-50.891c2.947-5.103 1.199-11.628-3.904-14.574zM256.78 277.317c0 9.87 8.05 17.917 17.92 17.917 9.871 0 17.92-8.047 17.92-17.917s-8.049-17.924-17.92-17.924c-9.87.002-17.92 8.054-17.92 17.924zM274.7 229.315c35.292 0 64.005-28.712 64.005-64.005 0-35.292-28.712-64.005-64.005-64.005-35.292 0-64.005 28.712-64.005 64.005 0 35.293 28.713 64.005 64.005 64.005zm0-106.673c23.528 0 42.668 19.141 42.668 42.668 0 23.528-19.141 42.668-42.668 42.668-23.528 0-42.668-19.141-42.668-42.668s19.141-42.668 42.668-42.668zM162.693 213.313c-35.292 0-64.005 28.712-64.005 64.005 0 35.292 28.712 64.005 64.005 64.005 35.292 0 64.005-28.712 64.005-64.005 0-35.293-28.713-64.005-64.005-64.005zm0 106.673c-23.528 0-42.668-19.141-42.668-42.668 0-23.528 19.141-42.668 42.668-42.668 23.528 0 42.668 19.141 42.668 42.668s-19.14 42.668-42.668 42.668zM274.698 325.32c-35.292 0-64.005 28.712-64.005 64.005 0 35.29 28.712 64 64.005 64 35.292 0 64.005-28.71 64.005-64 0-35.292-28.713-64.005-64.005-64.005zm0 106.67c-23.528 0-42.668-19.139-42.668-42.664 0-23.528 19.141-42.668 42.668-42.668 23.528 0 42.668 19.141 42.668 42.668 0 23.524-19.141 42.664-42.668 42.664zM450.709 277.317c0-35.292-28.712-64.005-64.005-64.005-35.291 0-64.004 28.712-64.004 64.005 0 35.292 28.712 64.005 64.004 64.005s64.005-28.712 64.005-64.005zm-106.673 0c0-23.528 19.14-42.668 42.667-42.668s42.668 19.141 42.668 42.668c0 23.528-19.141 42.668-42.668 42.668-23.527.001-42.667-19.14-42.667-42.668zM183.307 131.36c1.801 0 3.626-.458 5.301-1.418l.669-.386c5.129-2.9 6.936-9.407 4.036-14.536-2.899-5.129-9.407-6.938-14.536-4.037l-.788.456c-5.111 2.932-6.876 9.452-3.943 14.562a10.664 10.664 0 009.261 5.359zM360.78 424.698l-.727.421c-5.108 2.938-6.867 9.459-3.929 14.566a10.662 10.662 0 0014.566 3.93l.727-.421c5.108-2.938 6.868-9.459 3.93-14.566-2.937-5.109-9.46-6.867-14.567-3.93z"></path>
</svg>
