<svg
  xmlns="http://www.w3.org/2000/svg"
  width="55"
  height="55"
  version="1.1"
  viewBox="0 0 512 512"
  xmlSpace="preserve"
>
  <g fill="#FFF7E6">
    <path d="M380.131 103.539c23.05-26.728-10.89-64.423-39.88-44.292 10.186-33.793-36.151-54.423-54.448-24.241-4.439-35.015-55.161-35.015-59.601 0-18.297-30.182-64.635-9.552-54.448 24.241-28.993-20.13-62.933 17.564-39.883 44.292-34.672-6.598-50.346 41.642-18.417 56.684v23.024h285.095v-23.024c31.928-15.041 16.254-63.282-18.418-56.684z"></path>
    <path d="M173.592 183.248L179.901 206.273 166.338 218.082 188.411 490.445 200.884 503.255 366.853 503.255 413.52 183.248z"></path>
  </g>
  <g fill="#FF6465">
    <path d="M256.001 206.273L256.001 503.255 311.118 503.255 332.101 206.273 314.63 184.086 269.652 184.086 256.001 206.273"></path>
    <path d="M173.592 183.248L98.483 183.248 145.148 503.255 200.884 503.255 179.901 206.273z"></path>
  </g>
  <path
    d="M98.483 183.248L106.09 235.422 405.912 235.422 413.52 183.248 173.592 183.248z"
    enableBackground="new"
    opacity="0.1"
  ></path>
  <path
    fill="#F2CC7B"
    d="M406.894 160.224H105.109c-12.716 0-23.024 10.308-23.024 23.024 0 12.716 10.308 23.024 23.024 23.024h301.784c12.716 0 23.024-10.308 23.024-23.024.001-12.716-10.308-23.024-23.023-23.024z"
  ></path>
  <path d="M246.911 98.6c4.551 1.614 9.549-.77 11.163-5.321a15.032 15.032 0 017.751-8.605 15.033 15.033 0 0111.565-.605c7.864 2.787 11.995 11.452 9.209 19.318a8.745 8.745 0 0014.734 8.779c7.543-8.359 20.477-9.025 28.833-1.484 4.243 3.828 6.635 9.084 6.737 14.798a8.744 8.744 0 008.74 8.588l.16-.001a8.745 8.745 0 008.587-8.9c-.187-10.455-4.745-20.47-12.51-27.473-10.656-9.612-25.318-12.042-37.993-7.596-2.653-10.104-10.093-18.77-20.66-22.513-8.211-2.909-17.067-2.447-24.934 1.302-7.864 3.75-13.799 10.339-16.709 18.552-1.608 4.55.775 9.549 5.327 11.161z"></path>
  <path d="M93.984 213.003l30.229 207.296a8.746 8.746 0 0017.307-2.525l-29.568-202.755h59.798l19.747 279.493h-38.79l-6.089-41.758a8.745 8.745 0 00-17.307 2.523l7.18 49.241a8.745 8.745 0 008.654 7.483H366.853a8.746 8.746 0 008.654-7.483l29.964-205.478a8.745 8.745 0 00-17.307-2.524l-28.873 197.996h-38.79l19.747-279.493h59.798l-6.782 46.518a8.746 8.746 0 0017.307 2.523l7.445-51.056c12.047-4.518 20.644-16.15 20.644-29.755 0-13.286-8.201-24.687-19.804-29.422 6.465-10.262 7.044-22.699 3.773-32.762-3.78-11.633-13.573-22.819-27.82-26 4.369-13.929-.422-28.004-8.607-37.093-8.184-9.09-21.682-15.327-35.991-12.437-1.674-14.502-11.777-25.411-22.951-30.386-11.175-4.975-26.042-5.182-37.938 3.278C281.898 5.857 268.232 0 256.001 0c-12.23 0-25.897 5.858-33.325 18.424-11.895-8.458-26.765-8.251-37.936-3.278-11.175 4.975-21.278 15.884-22.952 30.386-14.307-2.888-27.809 3.349-35.991 12.437-8.185 9.089-12.976 23.164-8.607 37.093-14.246 3.182-24.041 14.368-27.82 26-3.269 10.063-2.692 22.501 3.773 32.762-11.604 4.736-19.804 16.137-19.804 29.423.001 13.606 8.599 25.237 20.645 29.756zm95.301 2.015h57.971v279.493h-38.225l-19.746-279.493zm113.684 279.493h-38.225V215.018h57.971l-19.746 279.493zm-197.86-325.543H156.76c4.395 0 8.256-3.479 8.699-7.85.478-4.703-3.103-9.115-7.805-9.595a9.1 9.1 0 00-.894-.045h-41.207c-11.011-6.12-12.103-17.149-9.548-25.011 2.676-8.234 10.631-16.926 24.232-14.338a8.746 8.746 0 008.258-14.301c-9.046-10.489-5.492-21.723.301-28.156 5.794-6.433 16.593-11.144 27.971-3.243a8.745 8.745 0 0013.36-9.706c-3.997-13.262 3.818-22.079 11.728-25.599 7.906-3.521 19.692-3.429 26.871 8.415a8.746 8.746 0 0016.153-3.434c1.741-13.74 12.468-18.616 21.124-18.616 8.656 0 19.383 4.875 21.126 18.616a8.746 8.746 0 0016.154 3.434c7.178-11.845 18.961-11.935 26.868-8.414 7.909 3.521 15.724 12.338 11.728 25.599a8.743 8.743 0 0013.36 9.706c11.381-7.902 22.178-3.189 27.971 3.243 5.792 6.434 9.346 17.667.301 28.156a8.744 8.744 0 008.258 14.301c13.596-2.59 21.556 6.105 24.232 14.338 2.553 7.861 1.463 18.891-9.548 25.011H191.741c-4.692 0-8.745 4.062-8.745 8.745 0 4.748 3.996 8.745 8.745 8.745h215.154c7.874 0 14.28 6.406 14.28 14.279 0 7.129-5.256 13.037-12.092 14.094-.043.006-.086.005-.129.01-.387.056-.73.096-1.051.124-.335.024-.668.051-1.009.051H105.109c-.688 0-1.378-.076-2.059-.175-.043-.006-.086-.005-.129-.01-6.836-1.059-12.092-6.967-12.092-14.094 0-7.874 6.406-14.28 14.28-14.28z"></path>
</svg>
